<?xml version="1.0" encoding="UTF-8"?>
<svg xmlns="http://www.w3.org/2000/svg" viewBox="0 0 880 400" preserveAspectRatio="xMidYMid meet">
  <defs>
    <linearGradient id="surround" x1="0" y1="0" x2="0" y2="1">
      <stop offset="0" stop-color="#6E9559"></stop>
      <stop offset="1" stop-color="#4A6B3D"></stop>
    </linearGradient>
    <linearGradient id="courtBlue" x1="0" y1="0" x2="0" y2="1">
      <stop offset="0" stop-color="#2F62BD"></stop>
      <stop offset="1" stop-color="#22509C"></stop>
    </linearGradient>
    <linearGradient id="kitchenRed" x1="0" y1="0" x2="0" y2="1">
      <stop offset="0" stop-color="#E66662"></stop>
      <stop offset="1" stop-color="#C84944"></stop>
    </linearGradient>
    <radialGradient id="lightPool" cx="50%" cy="40%" r="60%">
      <stop offset="0" stop-color="#FFFFFF" stop-opacity="0.10"></stop>
      <stop offset="1" stop-color="#FFFFFF" stop-opacity="0"></stop>
    </radialGradient>
    <linearGradient id="netShadow" x1="0" y1="0" x2="0" y2="1">
      <stop offset="0" stop-color="#000" stop-opacity="0.25"></stop>
      <stop offset="1" stop-color="#000" stop-opacity="0"></stop>
    </linearGradient>
    <filter id="texture" x="0" y="0" width="100%" height="100%">
      <feTurbulence type="fractalNoise" baseFrequency="1.4" numOctaves="2" seed="5"></feTurbulence>
      <feColorMatrix values="0 0 0 0 0  0 0 0 0 0  0 0 0 0 0  0 0 0 0.05 0"></feColorMatrix>
      <feComposite in2="SourceGraphic" operator="in"></feComposite>
      <feMerge><feMergeNode in="SourceGraphic"></feMergeNode><feMergeNode></feMergeNode></feMerge>
    </filter>
  </defs>

  
  <rect x="0" y="0" width="880" height="400" fill="url(#surround)"></rect>

  
  <ellipse cx="440" cy="140" rx="540" ry="240" fill="url(#lightPool)"></ellipse>

  
  <g transform="translate(40 18)">
    
    <rect x="6" y="10" width="800" height="364" fill="#000" opacity="0.18"></rect>

    
    <rect x="0" y="0" width="800" height="364" fill="url(#courtBlue)"></rect>

    
    
    <rect x="272.7" y="0" width="127.3" height="364" fill="url(#kitchenRed)"></rect>
    <rect x="400" y="0" width="127.3" height="364" fill="url(#kitchenRed)"></rect>

    
    <rect x="0" y="0" width="800" height="364" fill="none" stroke="#FFFFFF" stroke-width="3.5"></rect>

    
    <line x1="272.7" y1="0" x2="272.7" y2="364" stroke="#FFFFFF" stroke-width="3"></line>
    <line x1="527.3" y1="0" x2="527.3" y2="364" stroke="#FFFFFF" stroke-width="3"></line>

    
    <line x1="0" y1="182" x2="272.7" y2="182" stroke="#FFFFFF" stroke-width="3"></line>
    <line x1="527.3" y1="182" x2="800" y2="182" stroke="#FFFFFF" stroke-width="3"></line>

    
    <rect x="-9" y="170" width="9" height="24" fill="#0a0a0a"></rect>
    <rect x="800" y="170" width="9" height="24" fill="#0a0a0a"></rect>

    
    <line x1="-9" y1="182" x2="809" y2="182" stroke="#0a0a0a" stroke-width="3"></line>
    <line x1="-9" y1="182" x2="809" y2="182" stroke="#FFFFFF" stroke-width="1" stroke-dasharray="2 2"></line>
    
    <rect x="272.7" y="183" width="254.6" height="14" fill="url(#netShadow)" opacity="0.7"></rect>

    
    <g transform="translate(180 250)">
      <ellipse cx="2" cy="14" rx="9" ry="2" fill="#000" opacity="0.3"></ellipse>
      <circle r="9" fill="#FFEB3B"></circle>
      <circle r="9" fill="none" stroke="#000" stroke-width="0.5" opacity="0.3"></circle>
      <circle cx="-2.5" cy="-2.5" r="3" fill="#FFFFFF" opacity="0.5"></circle>
      <circle cx="-1.5" cy="2" r="0.9" fill="#000" opacity="0.25"></circle>
      <circle cx="2.5" cy="-0.5" r="0.9" fill="#000" opacity="0.25"></circle>
      <circle cx="2" cy="3.5" r="0.9" fill="#000" opacity="0.25"></circle>
    </g>
  </g>
</svg>