<?xml version="1.0" encoding="UTF-8" standalone="no"?>
<!-- Created with Inkscape (http://www.inkscape.org/) -->

<svg
   width="350mm"
   height="200mm"
   viewBox="0 0 350 200"
   version="1.1"
   id="svg1"
   inkscape:version="1.4.3 (fcd0343856, 2026-01-01)"
   sodipodi:docname="sideout_complete.svg"
   xmlns:inkscape="http://www.inkscape.org/namespaces/inkscape"
   xmlns:sodipodi="http://sodipodi.sourceforge.net/DTD/sodipodi-0.dtd"
   xmlns="http://www.w3.org/2000/svg"
   xmlns:svg="http://www.w3.org/2000/svg">
  <sodipodi:namedview
     id="namedview1"
     pagecolor="#ffffff"
     bordercolor="#000000"
     borderopacity="0.25"
     inkscape:showpageshadow="2"
     inkscape:pageopacity="0.0"
     inkscape:pagecheckerboard="0"
     inkscape:deskcolor="#d1d1d1"
     inkscape:document-units="mm"
     inkscape:zoom="0.48551487"
     inkscape:cx="397.51615"
     inkscape:cy="250.2498"
     inkscape:window-width="1536"
     inkscape:window-height="795"
     inkscape:window-x="0"
     inkscape:window-y="0"
     inkscape:window-maximized="1"
     inkscape:current-layer="layer1" />
  <defs
     id="defs1" />
  <g
     inkscape:label="Layer 1"
     inkscape:groupmode="layer"
     id="layer1">
    <g
       id="g2"
       transform="matrix(0.26458333,0,0,0.26458333,-1.6165169,-63.086857)">
      <path
         style="fill:#13ab14"
         d="m 12.622747,923.45144 c -3.5042705,-1.79059 -2.9904419,-4.19953 3.148319,-14.76 16.872612,-29.02583 34.636183,-45.16126 58.22834,-52.89137 19.182526,-6.28527 26.600204,-13.02309 48.345344,-43.91435 27.2212,-38.67056 40.41166,-50.39462 63.4418,-56.38888 5.09107,-1.3251 5.74811,-1.67276 7.99094,-4.22826 0.7282,-0.82971 4.48706,-4.90286 8.35303,-9.05143 3.86596,-4.14857 11.83225,-12.72686 17.70286,-19.06286 5.8706,-6.336 12.47539,-13.43314 14.6773,-15.77142 6.45268,-6.85232 18.64205,-19.9966 20.57504,-22.18688 3.36646,-3.81456 3.89642,-3.89741 6.17143,-0.96486 4.37904,5.64473 14.35022,10.76825 24.96,12.82529 13.50124,2.61763 30.89437,1.46672 57.8216,-3.82606 5.65324,-1.1112 6.47136,-1.04879 5.67825,0.43316 -0.40615,0.75889 -38.62086,29.31893 -62.95128,47.04709 -2.71543,1.97857 -7.52915,5.49356 -10.69715,7.81109 -20.01761,14.64373 -57.50383,41.37956 -74.60571,53.21009 -2.26286,1.56537 -5.472,3.79628 -7.13143,4.95759 -4.44994,3.11415 -13.87543,9.58908 -21.66857,14.88542 -3.77143,2.56312 -8.58514,5.85835 -10.69714,7.32273 -10.66588,7.39533 -53.70886,35.92696 -74.19429,49.18071 -27.121506,17.54718 -67.268414,42.86991 -71.260475,44.94767 -2.352897,1.22461 -2.329402,1.22204 -3.888208,0.42553 z m 142.348823,0.0347 c -3.86848,-1.54257 -3.40453,-3.87446 3.52314,-17.70794 14.92496,-29.80284 35.3732,-54.78156 56.40815,-68.90583 9.49645,-6.37656 13.9768,-8.44635 30.17143,-13.93836 21.77828,-7.38557 30.93177,-12.68252 46.73751,-27.04608 16.17791,-14.70178 35.03135,-41.5806 45.91874,-65.46507 3.98963,-8.75234 36.83591,-33.05514 59.4693,-44.00104 11.54839,-5.585 17.98502,-7.86372 39.51141,-13.98797 23.98165,-6.82277 32.25769,-12.0023 38.86155,-24.32137 2.26352,-4.22244 2.13518,-4.548 -1.95619,-4.96247 -11.39022,-1.15389 -21.37349,1.82581 -40.10803,11.97102 -38.05329,20.60677 -72.82498,31.77285 -115.29622,37.02456 -73.68152,9.11097 -77.65836,-39.54126 -9.36977,-114.62862 30.72601,-33.78507 62.23845,-55.98599 114.65456,-80.77561 2.48914,-1.17721 7.52211,-3.5783 11.18437,-5.33575 31.03549,-14.89336 78.20865,-30.57595 110.98844,-36.89782 3.63766,-0.70155 4.95988,-0.42903 6.57107,1.35436 2.03967,2.25768 1.97892,3.01262 -0.71743,8.91499 -18.19087,39.8203 -43.22969,66.28506 -81.67217,86.32332 -14.98425,7.81059 -28.44406,12.68915 -61.02857,22.12002 -47.45342,13.73435 -59.09085,21.40877 -63.89839,42.13846 -0.95098,4.10054 -0.84504,4.21037 4.43524,4.59823 14.25487,1.0471 27.40489,-1.44186 53.97744,-10.21653 59.50925,-19.65089 93.38485,-23.25895 115.20275,-12.27016 11.47343,5.7787 23.87487,23.42228 30.79314,43.80952 2.46023,7.24998 2.31182,7.51979 -6.98248,12.69399 -12.85152,7.15452 -21.29619,13.34004 -42.19055,30.90358 -34.49008,28.99192 -62.58774,49.61413 -117.39429,86.16126 -16.30264,10.87123 -22.87889,15.19344 -56.09143,36.86585 -50.9764,33.26398 -68.83269,45.16027 -96.68572,64.41435 -19.6227,13.56468 -35.038,24.43775 -54.30857,38.3062 -19.91197,14.33005 -18.78278,13.62877 -20.70843,12.86091 z m 2.68316,-0.51136 c 0.98508,-0.4471 9.14649,-6.22863 29.81956,-21.12415 13.61819,-9.81228 42.85422,-30.17843 62.4,-43.46854 16.90254,-11.49285 39.08447,-26.1527 77.62286,-51.30032 32.39209,-21.13694 39.67947,-25.92602 55.26857,-36.3211 54.28878,-36.20069 82.6008,-56.98323 116.98286,-85.87165 21.06275,-17.69731 30.14146,-24.34254 43.15809,-31.58992 6.12282,-3.40905 6.1305,-3.41435 6.93663,-4.78992 2.27122,-3.87553 -7.95884,-26.61461 -17.0789,-37.96246 -6.3757,-7.93312 -8.24965,-9.61727 -13.89842,-12.49076 -22.28569,-11.33655 -55.34614,-7.9143 -115.52883,11.95896 -25.20897,8.3244 -34.12913,10.18757 -49.09715,10.25503 -10.40598,0.0469 -10.70394,-0.10701 -9.58105,-4.94881 4.86519,-20.97828 16.27781,-28.51537 64.16391,-42.37495 32.68431,-9.45975 45.01424,-13.95504 61.02857,-22.25001 15.80354,-8.18578 27.96015,-16.53436 39.86591,-27.37798 2.39025,-2.17701 4.57007,-4.12022 4.84405,-4.31823 2.57874,-1.86377 15.07388,-16.92885 19.71147,-23.76563 5.61189,-8.27309 15.38855,-26.26417 18.52577,-34.09121 1.86309,-4.64823 -1.3219,-7.48093 -7.14796,-6.35733 -32.53345,6.27433 -79.20077,21.77217 -109.86581,36.48553 -3.51481,1.68644 -8.674,4.14758 -11.46485,5.4692 -58.28451,27.60084 -88.86302,49.98275 -123.83995,90.64451 -32.45567,37.73073 -47.29893,74.04837 -37.01057,90.55536 7.72702,12.39749 27.29393,17.39522 54.58703,13.94245 43.70959,-5.52956 76.87975,-16.25166 116.27491,-37.58532 17.61169,-9.53725 28.02568,-12.56237 39.31084,-11.41924 4.14835,0.42021 4.48841,1.09144 2.47867,4.89267 -6.74603,12.75946 -15.03301,18.00211 -39.42445,24.9414 -21.57158,6.13704 -27.00003,8.07402 -39.21837,13.99391 -17.87134,8.65881 -35.85845,20.86419 -52.69428,35.75638 -5.08264,4.49587 -4.82331,4.14362 -8.28366,11.25164 -14.90082,30.6083 -35.89553,57.39391 -57.00303,72.72599 -11.03844,8.0181 -16.74674,10.80006 -34.42286,16.7761 -14.90278,5.0384 -21.2502,7.96699 -30.20579,13.93643 -20.67312,13.77987 -40.95932,38.65692 -55.96401,68.62889 -3.11868,6.22958 -5.06617,10.46177 -5.8835,12.7857 l -0.52513,1.49312 0.62064,1.24974 c 1.00995,2.03366 2.5115,2.58439 4.53823,1.66452 z m 347.16813,-48.82376 c -10.34571,-0.87836 -15.28259,-3.34377 -16.7409,-8.36015 -0.57059,-1.96277 -1.12202,0.58612 5.74954,-26.5764 6.1031,-24.12485 6.26348,-24.66273 8.15962,-27.36587 7.55934,-10.77658 42.13248,-12.06695 47.12258,-1.75876 1.00729,2.08077 0.89402,3.80107 -0.66002,10.02445 -2.26096,9.05436 -1.22917,8.36496 -12.49939,8.35158 -11.38014,-0.0135 -10.68108,0.60906 -8.60609,-7.66428 1.67756,-6.68874 1.66177,-7.06105 -0.32209,-7.59162 -2.25931,-0.60423 -3.78935,0.72778 -4.693,4.08559 -3.84988,14.30545 -11.33006,44.9489 -11.12443,45.57254 0.69393,2.10463 4.67538,1.63792 5.54526,-0.65002 0.13217,-0.34765 1.07511,-3.88437 2.09541,-7.85937 2.39513,-9.3312 1.73568,-8.60794 8.08981,-8.87265 7.73756,-0.32235 13.34057,0.0805 14.03178,1.0088 l 0.54716,0.73485 -1.97681,7.90515 c -2.0761,8.3022 -2.44374,9.38584 -3.81572,11.24732 -3.97552,5.39391 -17.83552,8.87827 -30.90271,7.76884 z m -150.14325,-0.51381 c -2.37975,-0.16097 -2.61953,-0.23075 -3.12481,-0.90927 l -0.54728,-0.73493 1.9578,-7.76793 c 15.83204,-62.81678 14.9244,-59.47702 16.3246,-60.06824 2.06113,-0.87029 32.61558,-0.27513 37.96426,0.7395 7.66653,1.45432 10.87164,4.8141 9.80824,10.28158 -5.4988,28.27222 -8.57342,31.80713 -28.39956,32.65123 -7.77556,0.33104 -8.59012,0.42385 -9.15003,1.04255 -0.44631,0.49316 -1.70478,5.04112 -4.41387,15.95116 -1.73132,6.97235 -2.11812,8.03729 -3.07807,8.47468 -0.79308,0.36135 -13.37681,0.60783 -17.34128,0.33967 z m 31.35355,-36.38534 c 3.40598,-0.88715 3.62255,-1.29655 6.21748,-11.75334 2.43522,-9.81324 2.40791,-10.07666 -1.14158,-11.013 -1.38009,-0.36406 -2.5027,-0.0946 -3.22324,0.77355 -0.49861,0.60079 -5.55429,20.77569 -5.36236,21.39868 0.14168,0.45985 0.94671,0.9521 1.62463,0.99343 0.15688,0.01 1.00516,-0.17014 1.88507,-0.39932 z m 49.97225,36.38471 c -4.54944,-0.29114 -5.11688,3.95153 4.61365,-34.49593 4.58667,-18.12293 8.54109,-33.3408 8.78759,-33.8175 0.62133,-1.20151 1.02368,-1.29737 6.41166,-1.52765 11.13456,-0.47589 16.6388,0.20406 16.12479,1.99192 -0.0752,0.26149 -3.85685,15.22515 -8.40372,33.25258 -8.39735,33.29381 -8.55184,33.83639 -9.76557,34.29785 -0.83851,0.3188 -13.99764,0.54003 -17.7684,0.29873 z m 134.17456,0.004 c -2.87788,-0.19217 -3.58582,-0.53624 -3.56082,-1.73065 0.0208,-0.99231 16.5028,-65.7934 16.95862,-66.67485 0.69028,-1.33485 1.17551,-1.39511 11.34795,-1.4094 12.83191,-0.018 11.86922,-1.04796 9.16753,9.80788 -2.98869,12.00908 -2.82387,12.15825 3.37218,3.05187 9.95525,-14.63132 7.37596,-12.85939 18.72886,-12.86642 12.76073,-0.008 13.16931,-2.72041 -3.14855,20.90266 -3.76827,5.45527 -6.99098,10.32224 -7.16157,10.8155 -0.26834,0.77592 0.13205,3.29609 2.96976,18.69251 l 3.27991,17.79568 -0.5355,0.71861 c -0.90508,1.21456 -21.5443,1.58326 -23.32475,0.41667 -0.98217,-0.64355 -1.08856,-1.21722 -1.83727,-9.90655 -1.2452,-14.45155 -1.31622,-14.44871 -4.92959,0.19706 -1.96742,7.97439 -2.51323,9.47049 -3.60668,9.88622 -0.86523,0.32896 -13.97508,0.55328 -17.72008,0.30321 z m 88.2429,-0.0223 c -2.86629,-0.10252 -5.23944,-0.21035 -5.27368,-0.23962 -1.11534,-0.95349 -1.45342,0.62341 7.31518,-34.11982 8.62797,-34.186 8.72546,-34.53541 9.76833,-35.01057 2.31875,-1.0565 20.20427,-0.57528 21.05508,0.5665 l 0.55623,0.74646 -7.20507,28.48126 c -3.96279,15.66469 -7.16255,28.77941 -7.11057,29.14381 0.16535,1.15935 0.91559,1.27834 9.36537,1.48537 10.21611,0.2503 9.84089,0.0509 8.67644,4.61157 -0.7097,2.77963 -1.19101,3.7199 -2.07646,4.05654 -0.85701,0.32584 -27.77174,0.53957 -35.07085,0.2785 z m 72.21475,0.0149 c -7.5489,-0.23811 -7.13615,0.87021 -4.09835,-11.00487 1.21563,-4.752 4.93742,-19.42598 8.27065,-32.60885 6.4828,-25.63936 6.37201,-25.26932 7.73715,-25.8415 1.28132,-0.53705 40.61408,-0.54902 41.5827,-0.0127 1.04961,0.58121 1.11957,1.30219 0.40099,4.13206 -1.23075,4.84688 -0.25234,4.45695 -12.0664,4.80887 -11.79325,0.3513 -10.22346,-0.67969 -12.55464,8.24549 -2.82276,10.80722 -3.46843,9.86452 6.94024,10.13303 9.67164,0.2495 9.59098,0.20902 8.54884,4.2907 -1.15621,4.5284 -0.48587,4.24755 -10.74937,4.50354 -10.81453,0.26974 -9.23433,-1.28306 -12.69029,12.47028 -3.28106,13.05734 -4.21835,11.65071 7.94944,11.93013 4.82743,0.11086 8.99169,0.31542 9.25391,0.45458 1.38245,0.73368 -0.14447,7.3653 -1.87768,8.155 -0.80429,0.36646 -27.87941,0.62076 -36.64719,0.3442 z m 72.71754,-0.019 c -4.12018,-0.15593 -4.70786,-0.31865 -5.05059,-1.3985 -0.17462,-0.55016 16.10161,-65.38408 16.77143,-66.80649 1.35788,-2.88357 33.83782,-2.29217 41.1434,0.74915 6.69647,2.78775 7.65604,5.53799 5.20414,14.91571 -2.33282,8.92225 -3.6888,10.60311 -10.98011,13.61088 -3.16562,1.30586 -3.22852,1.66153 -0.52763,2.9834 6.62085,3.24038 6.91576,4.28924 4.20945,14.97103 -4.97945,19.65383 -11.75112,22.45143 -50.77009,20.97482 z m 24.13969,-10.23786 c 1.73133,-0.8842 2.00381,-1.57975 4.45627,-11.37515 2.64694,-10.57219 2.59583,-11.32509 -0.79972,-11.78053 -2.02298,-0.27134 -2.09377,-0.11183 -4.95374,11.16198 -3.54585,13.97748 -3.49567,14.44144 1.29719,11.9937 z m 6.76487,-31.92048 c 3.01506,-1.0093 3.20863,-1.3547 5.23347,-9.33835 1.78625,-7.04289 1.68754,-7.79495 -1.12644,-8.58281 -2.39903,-0.67169 -2.48708,-0.50623 -4.93919,9.28069 -2.05514,8.20255 -2.10869,9.09296 -0.54681,9.09296 0.015,0 0.63553,-0.20362 1.37897,-0.45249 z m 48.11743,42.16361 c -2.91054,-0.17518 -3.29142,-0.31909 -3.29142,-1.24362 0,-0.35364 6.1234,-12.96693 13.60756,-28.02953 7.48416,-15.0626 14.95506,-30.14057 16.60199,-33.50661 2.813,-5.74928 3.05627,-6.1471 4.01529,-6.56619 1.79059,-0.78249 26.06131,-0.69584 27.12647,0.0969 1.24768,0.92851 1.21722,-2.68521 0.46433,55.08078 -0.20565,15.77805 0.58565,14.002 -6.36403,14.28391 -16.68545,0.67685 -16.61751,0.71976 -15.85021,-10.01173 0.60223,-8.42282 0.49054,-8.63325 -4.57445,-8.61809 -5.33724,0.016 -4.37449,-1.05557 -9.94417,11.06788 -3.51663,7.65462 -3.09324,7.21284 -7.14986,7.46044 -3.69831,0.22574 -10.76995,0.21893 -14.6415,-0.0141 z m 36.40934,-28.97517 c 1.44324,-0.94564 2.93314,-14.93023 1.59065,-14.93023 -0.3589,0 -3.82149,8.08125 -5.38035,12.55704 -0.90436,2.59658 1.32146,3.99044 3.7897,2.37319 z m 58.46611,28.98937 c -5.25761,-0.17626 -5.79269,-0.29838 -6.14295,-1.40196 -0.17213,-0.54234 16.04387,-65.06668 16.7637,-66.70366 0.74339,-1.69054 1.01492,-1.73072 11.62381,-1.71999 10.11784,0.0102 10.53384,0.0626 10.86104,1.36659 0.1115,0.44409 -2.2714,10.33485 -6.8872,28.58637 -3.88172,15.34903 -7.07133,28.36621 -7.08802,28.92707 -0.0509,1.71156 -0.15551,1.68886 9.18112,1.99368 10.4036,0.33965 9.8172,0.0475 8.7228,4.3466 -0.7331,2.88015 -1.2135,3.87272 -2.0613,4.259 -0.8011,0.365 -26.75079,0.62195 -34.973,0.3463 z m 72.0274,-0.0153 c -2.8663,-0.10252 -5.2394,-0.21035 -5.2737,-0.23962 -1.0748,-0.91885 -1.3808,0.4932 7.4793,-34.50861 8.5685,-33.85019 8.6659,-34.18989 9.9459,-34.72294 1.3397,-0.55788 19.5259,-0.46048 20.3954,0.10924 1.1578,0.75862 1.2303,0.41156 -6.2639,29.98338 -7.6693,30.26272 -7.507,29.45863 -6.0578,30.00493 0.3413,0.12866 4.1382,0.32221 8.4377,0.43012 9.997,0.2509 9.6457,0.0601 8.4844,4.60846 -0.7097,2.77963 -1.191,3.7199 -2.0764,4.05654 -0.857,0.32584 -27.7718,0.53957 -35.0709,0.2785 z M 917.84312,790.46675 C 811.95674,784.95664 756.65831,672.41114 810.53911,572.0775 c 57.7809,-107.59618 199.33909,-139.82849 270.81799,-61.66432 95.1278,104.0248 -12.2456,287.92527 -163.51398,280.05357 z m 20.21403,-0.25621 c 37.18697,-1.91651 75.32445,-17.32618 107.36085,-43.3798 3.7163,-3.02221 5.1468,-4.5317 3.1459,-3.31947 -1.6222,0.98283 -12.8574,7.32234 -16.5639,9.3463 -9.2579,5.05536 -10.3147,5.0031 -6.7345,-0.33305 14.4438,-21.5282 12.9347,-34.20859 -3.922,-32.95537 -22.27452,1.656 -48.02275,23.46953 -50.35622,42.66104 -0.5537,4.5539 -0.72027,4.6854 -7.13352,5.63137 -22.81383,3.36511 -37.64756,3.26442 -48.06518,-0.32626 -3.913,-1.34871 -3.7884,-1.41845 -6.21812,3.48014 -3.84379,7.7495 -5.4758,9.04411 -4.38827,3.48103 4.25509,-21.7662 -0.37488,-35.48642 -15.39932,-45.6335 -4.68554,-3.16449 -13.95951,-4.46318 -24.94568,-3.49332 -9.06078,0.79989 -8.61996,0.87903 -13.18004,-2.36613 -10.70389,-7.61739 -18.35362,-20.00709 -20.72567,-33.56781 -0.75574,-4.32047 -0.986,-4.36172 -5.46752,-0.97938 -8.32794,6.28535 -22.48551,11.07251 -15.08681,5.10137 8.42069,-6.79595 17.37534,-16.62767 21.26297,-23.34562 13.95959,-24.12257 14.67183,-43.51161 2.30212,-62.66922 -3.49904,-5.41914 -3.40565,-4.89658 -1.88122,-10.527 5.85666,-21.63129 10.92726,-35.47909 20.40023,-55.713 7.77643,-16.61014 16.54036,-30.18258 27.22924,-42.16909 3.23043,-3.62261 3.01674,-3.60069 -2.85031,0.29241 -109.84106,72.88515 -116.8852,225.20798 -12.7948,276.67488 22.21931,10.98621 46.13795,15.54602 74.01177,14.10948 z M 1079.718,664.17814 c 21.8622,-2.86589 36.4292,-34.88071 25.5709,-56.19851 -7.7327,-15.18145 -25.4323,-11.60474 -39.3367,7.94914 -15.0131,21.113 -11.2352,44.66778 7.7392,48.25321 2.52,0.47618 2.364,0.47628 6.0266,-0.004 z m -116.97513,-6.32166 c 25.37954,-4.2734 42.67963,-33.60866 32.37857,-54.90349 -12.01684,-24.84183 -49.40395,-21.58511 -64.43538,5.61284 -14.89117,26.94417 2.84147,54.20993 32.05681,49.29065 z m -73.92,-103.6673 c 20.81047,-5.45665 49.72984,-34.4729 49.77925,-49.94602 0.0552,-17.26905 -29.00775,-17.5067 -49.4196,-0.40411 -24.27773,20.3417 -24.53736,56.6897 -0.35965,50.35013 z m 168.68573,-17.82667 c 11.1903,-2.94791 18.3852,-13.43484 19.1501,-27.91249 l 0.1272,-2.40713 -3.1004,-2.90083 c -15.9843,-14.95512 -42.708,-29.33019 -48.0246,-25.83315 -10.3104,6.78169 -14.1668,17.84041 -10.3484,29.6756 5.9653,18.48954 27.2571,33.31344 42.1961,29.378 z m 61.1936,228.61437 c -22.2102,-3.73963 -32.3458,-22.12163 -28.2586,-51.25021 1.1113,-7.92031 0.8973,-7.26272 3.9294,-12.07426 23.2054,-36.82497 33.1833,-79.87801 27.5635,-118.9324 -0.7863,-5.46463 -0.9639,-6.45111 -2.0537,-11.41121 l -0.8198,-3.73121 2.4932,-12.3145 c 1.3713,-6.77298 4.8337,-23.89986 7.6943,-38.05973 2.8606,-14.15987 5.2688,-25.85473 5.3515,-25.98857 0.1986,-0.32143 40.9061,-0.32118 41.1048,2.5e-4 0.083,0.13398 -0.7687,4.79341 -1.8923,10.35428 -2.6903,13.31527 -8.9423,44.2267 -26.0939,129.01355 -17.8928,88.4507 -17.7559,87.69385 -16.529,91.36478 1.1667,3.49068 5.2558,3.32823 7.8939,-0.3136 2.42,-3.34076 4.0584,-10.15007 12.518,-52.026 3.1017,-15.35414 7.8607,-38.90176 10.5754,-52.32804 2.7148,-13.42629 5.9716,-29.53372 7.2374,-35.79429 3.6997,-18.29839 16.2651,-80.35314 17.2901,-85.3878 0.5162,-2.53586 1.0103,-4.72672 1.098,-4.86857 0.1933,-0.31274 40.9011,-0.35839 41.0942,-0.0461 0.072,0.1165 -1.223,6.87422 -2.8779,15.01714 -1.6548,8.14292 -5.402,26.65445 -8.3272,41.13674 -5.7417,28.42614 -16.9685,83.90847 -23.1442,114.37714 -7.7369,38.17065 -10.4164,49.93158 -13.4667,59.10858 -2.9196,8.78395 -6.8787,15.97064 -13.0156,23.62633 -12.9787,16.19084 -30.8889,23.63856 -49.3648,20.52768 z m 14.9798,-0.14722 c 21.5913,-2.98213 40.5001,-21.45401 48.0374,-46.92748 3.5256,-11.91531 5.1302,-19.42832 22.2813,-104.32503 2.4838,-12.29486 5.8043,-28.71086 7.3788,-36.48 10.3867,-51.25156 17.1462,-84.89376 17.1462,-85.3365 0,-0.49904 -0.6221,-0.51493 -20.1659,-0.51493 h -20.1658 l -0.2561,0.61714 c -0.1408,0.33943 -0.8853,3.76457 -1.6546,7.61143 -1.7363,8.68309 -13.6459,67.61726 -33.5619,166.08 -9.7893,48.39772 -10.7789,52.48089 -13.7166,56.59852 -2.2278,3.1227 -6.2775,3.53578 -7.7762,0.79319 -1.7669,-3.23337 -1.4081,-5.41947 10.7249,-65.34599 3.8484,-19.008 12.5657,-62.08457 19.3718,-95.72572 6.806,-33.64114 12.7885,-63.20116 13.2943,-65.68892 0.5058,-2.48777 0.8618,-4.61691 0.791,-4.73143 -0.1868,-0.30231 -40.3511,-0.26128 -40.5382,0.0414 -0.1585,0.25648 -2.7462,12.89991 -10.8674,53.09894 l -4.6547,23.04 0.8266,3.70286 c 1.7778,7.96352 2.9087,16.27398 3.298,24.23437 0.1486,3.0391 0.33,6.01934 0.4032,6.62277 0.31,2.55565 -0.8468,19.02271 -1.792,25.50858 -3.8812,26.63436 -13.1409,51.57485 -27.5174,74.11672 l -2.6552,4.16312 -0.5163,3.23722 c -6.212,38.94286 9.8659,60.08733 42.2848,55.60973 z m -622.53049,0.18569 c -0.0822,-0.13298 1.33702,-7.56956 3.15381,-16.52571 1.81679,-8.95615 6.13729,-30.29306 9.60112,-47.41535 3.46383,-17.12228 6.36553,-31.34704 6.44822,-31.61056 0.29016,-0.92474 7.79691,-5.80026 15.80226,-10.26333 8.0791,-4.50419 9.74181,-6.15462 10.74344,-10.66415 1.11401,-5.0155 -5.19013,-21.34214 -13.11615,-33.96859 l -1.79353,-2.85715 4.95078,-24.50668 c 8.0463,-39.8297 9.64723,-47.74686 13.38589,-66.19811 1.95631,-9.65486 4.07401,-20.14629 4.706,-23.31429 0.632,-3.168 1.2641,-5.976 1.40467,-6.24 0.27052,-0.50807 40.89543,-0.77856 41.19445,-0.27428 0.0671,0.11314 -0.35109,2.55086 -0.9293,5.41714 -1.5686,7.77585 -22.90404,113.15493 -30.4598,150.44572 -3.6221,17.87657 -7.80645,38.55086 -9.29855,45.94286 -3.41968,16.9414 -12.27417,60.71356 -13.55531,67.01065 -0.53126,2.61129 -1.03766,4.86386 -1.12533,5.00572 -0.20599,0.33329 -40.90678,0.34925 -41.11267,0.0161 z m 41.33361,-2.22677 c 0.26681,-1.13143 3.31454,-16.06628 6.77274,-33.18857 3.4582,-17.12229 10.43583,-51.62057 15.50585,-76.66286 5.07002,-25.04228 11.55468,-57.072 14.41035,-71.17714 14.15231,-69.90308 18.09452,-89.50893 18.09452,-89.98985 0,-0.51167 -0.49414,-0.52444 -20.29192,-0.52444 h -20.29192 l -0.14842,0.61714 c -0.14049,0.5842 -4.95161,24.3499 -17.00494,84 -2.92639,14.48229 -5.75981,28.48563 -6.29648,31.11854 l -0.97577,4.78711 0.99979,1.50578 c 5.92929,8.93017 11.76173,21.8564 13.63546,30.21981 l 0.71112,3.1741 -0.54488,2.2813 c -1.03434,4.33061 -3.11216,6.29714 -11.68676,11.06078 -7.66943,4.26076 -14.4664,8.64706 -14.7539,9.52116 -0.0744,0.22628 -3.46495,16.88914 -7.5345,37.02857 -4.06954,20.13943 -8.37865,41.43086 -9.57579,47.31429 -1.19715,5.88342 -2.12164,10.7905 -2.05444,10.90462 0.0672,0.11411 9.21727,0.17582 20.33348,0.13714 l 20.2113,-0.0703 z m 16.57049,2.275 c -0.0773,-0.12498 1.58421,-8.7417 3.69213,-19.14826 2.10792,-10.40657 5.99272,-29.5976 8.63288,-42.64674 2.64017,-13.04914 5.71252,-28.23086 6.82746,-33.73714 1.11494,-5.50629 4.18513,-20.688 6.82265,-33.73715 2.63752,-13.04914 8.32961,-41.19085 12.6491,-62.53714 14.09842,-69.67231 14.89231,-73.60335 15.6208,-77.34857 0.39614,-2.03657 0.84044,-3.98956 0.98732,-4.33998 l 0.26707,-0.63711 23.79107,0.12006 c 26.4859,0.13367 30.60485,0.36702 39.49752,2.23765 16.56152,3.48382 24.68702,19.59828 21.78993,43.21366 -1.8246,14.87304 -3.45881,23.47707 -19.7707,104.09143 -16.21766,80.14869 -18.07004,87.86883 -24.02223,100.11702 -7.11078,14.63228 -16.0179,21.46961 -31.00632,23.80123 -3.79651,0.59059 -65.43511,1.10695 -65.77868,0.55104 z m 64.95583,-0.733 c 21.26842,-3.06441 31.40486,-15.07879 39.21128,-46.47584 3.20049,-12.8722 5.40344,-23.15859 12.90424,-60.25473 13.13396,-64.95557 15.03032,-74.39555 16.99838,-84.61715 7.69109,-39.94549 8.31308,-49.12221 4.20156,-61.98857 -5.347,-16.73261 -14.77439,-19.74857 -61.73069,-19.74857 h -21.00217 l -0.27528,1.30286 c -0.33658,1.59298 -7.72781,38.10638 -23.47206,115.95428 -21.6578,107.0876 -30.34413,149.9953 -30.99532,153.10703 -0.35367,1.69001 -0.56785,3.14793 -0.47595,3.23983 0.44875,0.44875 61.31111,-0.0401 64.63601,-0.51914 z m -14.2871,-46.07769 c -0.091,-0.23703 1.07401,-6.57519 2.58881,-14.08478 21.5892,-107.02788 33.58435,-165.90958 33.86982,-166.26001 0.88989,-1.09237 7.0125,0.29603 8.61726,1.9541 3.80552,3.93196 4.65143,-1.3699 -16.11568,101.00638 -3.33556,16.44343 -6.79581,33.50216 -7.68945,37.9083 -5.53346,27.28301 -8.18438,34.9764 -13.03043,37.81637 -2.60778,1.52826 -7.88304,2.59072 -8.24033,1.65964 z m 5.44087,-0.72457 c 5.82019,-1.80004 7.67522,-5.16072 11.58043,-20.97974 2.06066,-8.34722 1.99536,-8.04104 7.28288,-34.14857 2.24563,-11.088 7.18339,-35.46514 10.97279,-54.17143 11.30697,-55.81659 11.73498,-58.16116 11.45034,-62.72358 -0.33124,-5.30939 -3.3934,-7.92836 -8.86167,-7.5791 l -1.3393,0.0855 -0.36642,1.78285 c -0.61883,3.01101 -18.87778,93.19472 -32.04152,158.25796 -4.66115,23.03824 -4.77498,21.36187 1.32247,19.47607 z m 55.06337,47.07395 c 0,-0.56834 5.10841,-25.94438 28.66331,-142.38512 2.47188,-12.21943 5.37181,-26.53714 6.44429,-31.81714 1.07248,-5.28 6.01647,-29.69961 10.98665,-54.26579 4.97017,-24.56618 9.10579,-44.77761 9.19026,-44.91428 0.36325,-0.58776 68.69263,-0.30142 68.69263,0.28786 0,0.638 -10.5761,53.14477 -10.84481,53.84078 -0.17304,0.44824 -1.08954,0.48 -13.85176,0.48 -12.77521,0 -13.67632,0.0313 -13.81768,0.48 -0.19091,0.60596 -10.3086,50.76816 -10.3086,51.10868 0,0.14847 5.07926,0.25304 12.41143,0.25552 6.82628,0.002 12.57601,0.10853 12.77717,0.23605 0.29513,0.18708 -0.006,2.07972 -1.56097,9.80151 -1.0597,5.26332 -3.35412,16.66681 -5.09872,25.3411 -1.74459,8.67428 -3.29208,16.04914 -3.43886,16.38857 l -0.26686,0.61714 h -12.58944 c -9.74882,0 -12.64862,0.0774 -12.85171,0.34286 -0.37805,0.49421 -12.227,59.37559 -12.01683,59.71565 0.11778,0.19058 5.0452,0.28435 14.94163,0.28435 11.56898,0 14.79061,0.0742 14.88004,0.34286 0.0929,0.27903 -8.56372,43.66999 -10.38326,52.04571 l -0.50648,2.33143 -35.72572,0.0696 -35.72571,0.0696 z m 71.16893,0.1196 c 0.21141,-0.34207 10.8425,-52.80828 10.8425,-53.50955 0,-0.52787 -0.27968,-0.53803 -14.82004,-0.53803 -12.92871,0 -14.84021,-0.0526 -14.97812,-0.41195 -0.16437,-0.42834 11.49955,-58.77583 11.96674,-59.86233 l 0.26537,-0.61714 h 12.75494 12.75494 l 0.14554,-0.61715 c 0.0801,-0.33943 0.76778,-3.70285 1.5283,-7.47428 0.76052,-3.77143 3.04065,-15.04911 5.06696,-25.0615 4.38046,-21.64479 5.83899,-18.68708 -9.2151,-18.68708 -11.85771,0 -12.60096,-0.0285 -12.60096,-0.48399 0,-0.2662 1.85949,-9.67763 4.1322,-20.91429 2.2727,-11.23666 4.57518,-22.652 5.1166,-25.36743 0.54143,-2.71543 1.10392,-5.09143 1.24997,-5.28 0.20606,-0.26606 3.2955,-0.34286 13.79291,-0.34286 7.44006,0 13.58558,-0.0942 13.65672,-0.20927 0.1618,-0.26181 10.87446,-53.17149 10.87446,-53.70883 0,-0.33889 -4.66313,-0.38308 -34.08,-0.32297 l -34.08,0.0696 -0.4842,2.05715 c -0.26631,1.13142 -5.73515,28.03885 -12.15297,59.79428 -6.41782,31.75543 -13.64278,67.488 -16.05548,79.40572 -2.4127,11.91771 -6.71939,33.20914 -9.57041,47.31428 -4.44315,21.98199 -11.50116,56.86254 -15.7866,78.01705 -0.6704,3.30937 -1.21891,6.2408 -1.21891,6.51428 0,0.5665 70.54525,0.80158 70.89464,0.23625 z m 455.73389,-0.064 c 0,-0.32961 2.5386,-13.13532 5.6413,-28.45714 3.1027,-15.32183 8.034,-39.70701 10.9584,-54.18929 2.9245,-14.48229 7.1806,-35.52686 9.4581,-46.76572 2.2775,-11.23885 5.4247,-26.79086 6.9937,-34.56 1.5691,-7.76914 4.6487,-22.99599 6.8436,-33.83743 2.1948,-10.84145 3.9907,-20.00602 3.9907,-20.36572 v -0.65399 h -11.9315 -11.9314 v -0.5902 c 0,-0.50165 4.2408,-21.74195 9.4383,-47.27266 l 1.396,-6.85714 45.0514,-0.0694 45.0514,-0.0694 v 0.60295 c 0,0.6775 -10.5579,53.02613 -10.8458,53.77583 -0.1716,0.44702 -1.009,0.48 -12.1899,0.48 -9.2819,0 -12.0651,0.0778 -12.2678,0.34286 -0.1441,0.18857 -2.5603,11.76 -5.3692,25.71428 -2.809,13.95429 -7.0321,34.87543 -9.3848,46.49143 -2.3527,11.616 -6.425,31.73486 -9.0495,44.70857 -2.6245,12.97372 -7.748,38.27657 -11.3856,56.22857 -3.6376,17.95201 -7.1811,35.47886 -7.8745,38.94858 -0.6933,3.46971 -1.38,6.46285 -1.526,6.65143 -0.2081,0.26883 -4.67,0.34285 -20.6662,0.34285 h -20.4007 z m 40.981,-0.155 c 0.082,-0.264 2.0712,-9.984 4.4201,-21.6 2.3489,-11.616 6.1837,-30.56229 8.5218,-42.10286 2.3381,-11.54057 6.4608,-31.90629 9.1617,-45.25714 2.7009,-13.35086 7.022,-34.704 9.6024,-47.45143 5.6351,-27.83721 10.0366,-49.6425 11.3777,-56.36572 0.5416,-2.71543 1.1009,-5.21486 1.2428,-5.55428 l 0.2579,-0.61715 h 12.0831 c 9.4152,0 12.1114,-0.0757 12.2112,-0.34285 0.1932,-0.51661 10.8261,-53.14555 10.8261,-53.585 0,-0.43493 -89.257,-0.58754 -89.5255,-0.15307 -0.1684,0.27247 -10.8631,53.13226 -10.8631,53.69211 0,0.32959 1.8129,0.38881 11.9021,0.38881 9.2713,0 11.93,0.0758 12.0285,0.34286 0.07,0.18857 -1.0837,6.32914 -2.5629,13.64571 -15.2317,75.34383 -20.1578,99.70038 -26.9882,133.44001 -10.0787,49.78455 -14.4024,71.29018 -14.4024,71.63624 0,0.6425 40.5066,0.52684 40.7067,-0.11624 z M 308.29003,567.37522 c -0.8258,-0.35009 -4.05484,-1.81553 -7.17565,-3.25654 -6.23596,-2.8794 -25.94361,-11.35807 -32.27872,-13.88702 -5.9818,-2.38791 -17.43463,-6.14019 -30.06994,-9.85178 -6.18515,-1.81687 -11.96793,-3.55354 -12.85064,-3.85928 -2.25756,-0.78192 -2.53005,-0.57604 -2.77928,2.09998 -0.32431,3.48215 -0.0953,3.32491 -6.47476,4.44539 -7.42213,1.30361 -7.33584,1.33297 -8.72961,-2.96995 -1.09285,-3.37392 -1.2316,-3.50949 -3.81759,-3.72997 -4.77903,-0.40745 -5.92941,-1.45253 -11.64923,-10.58286 -6.72562,-10.73584 -7.42258,-13.35077 -4.01669,-15.07007 2.2927,-1.15734 2.32653,-1.303 1.05115,-4.5257 -2.48181,-6.27119 -2.47903,-7.72078 0.0192,-10.01753 2.5397,-2.33487 1.95819,-2.80374 -8.76398,-7.06653 -15.84516,-6.29952 -18.61129,-7.66111 -20.34106,-10.0126 -3.56872,-4.85139 -12.02419,-41.15644 -16.42931,-70.54218 -2.49156,-16.62074 -2.43463,-17.79998 0.95608,-19.80345 24.73741,-14.61666 52.65326,-19.50979 80.44675,-14.10083 6.29143,1.22439 5.49898,-0.80222 9.55708,24.44142 1.73397,10.78629 3.82751,23.808 4.65231,28.93714 0.8248,5.12915 1.74382,10.86857 2.04227,12.75429 2.27337,14.36395 3.87533,24.31719 3.95106,24.54857 0.42021,1.28378 -1.62963,4.74318 -3.98638,6.72758 -0.80128,0.67469 -4.91491,4.37426 -9.14141,8.22127 -4.22649,3.84701 -8.25935,7.46277 -8.96191,8.03502 -3.0444,2.47974 -2.75772,3.37656 2.6488,8.28604 4.71374,4.28039 4.29573,4.14439 9.19055,2.99008 34.29949,-8.08863 57.066,-13.81253 82.28374,-20.68759 19.35494,-5.27669 24.34874,-6.66717 38.4,-10.69214 37.5292,-10.7502 55.0004,-14.20072 77.79016,-15.36335 12.33358,-0.62921 14.50168,-0.67592 22.32413,-0.48101 17.0572,0.425 30.74806,1.53464 43.47428,3.52356 8.05596,1.25903 8.9407,2.2427 3.52903,3.92365 -33.56948,10.42719 -70.88113,25.52715 -103.15522,41.74676 -13.65737,6.86362 -12.05331,6.28969 -24.76238,8.85988 -20.0725,4.05932 -43.25427,7.03953 -68.43428,8.7978 -11.55328,0.80674 -14.48853,1.06754 -20.29715,1.80344 -2.86628,0.36313 -7.78529,0.91282 -10.93113,1.22153 -10.89865,1.06953 -9.13831,1.69806 15.04542,5.37195 3.46971,0.52711 7.728,1.19565 9.46286,1.48565 6.7816,1.13362 23.73692,3.44272 36.32597,4.94713 10.01096,1.19633 9.85832,0.9757 4.03847,5.83727 -8.7009,7.26823 -22.313,19.87996 -26.17419,24.25062 -1.32222,1.49668 -2.86828,2.98216 -3.43569,3.30106 l -1.03166,0.57982 z M 517.71429,444.86086 c -29.26069,-2.73484 -43.49562,-25.91167 -38.98041,-63.46657 1.52059,-12.64736 1.4993,-12.61633 13.28322,-19.3517 33.38467,-19.08174 54.08066,-20.36082 65.02348,-4.01866 2.56155,3.82546 2.02313,3.64764 9.4088,3.10733 3.36713,-0.24632 12.54034,-0.87758 20.38491,-1.40278 7.84457,-0.5252 21.73029,-1.45933 30.85715,-2.07583 19.80195,-1.3376 19.73224,-1.34317 20.95974,1.67518 0.9551,2.34854 -0.54499,3.76458 -7.30317,6.89393 -22.70213,10.51214 -47.40316,20.09527 -68.788,26.68733 -6.88037,2.12093 -8.22857,2.59976 -8.22857,2.92246 0,0.56913 5.44476,-0.0863 11.98687,-1.44294 8.23137,-1.70695 8.97835,3.23936 2.82261,18.69057 -9.14842,22.96299 -27.09759,34.05558 -51.42663,31.78168 z m 14.26286,-0.65862 c 17.87761,-2.79493 29.54471,-12.82172 37.15945,-31.93508 5.67535,-14.2454 5.02509,-19.39056 -2.23957,-17.7206 -5.70546,1.31154 -12.60004,2.14586 -13.1541,1.5918 -0.56725,-0.56725 -0.3774,-0.6375 13.20565,-4.88623 18.95651,-5.92952 56.78248,-21.07793 68.98286,-27.626 3.64893,-1.95842 3.34826,-6.0781 -0.48505,-6.64597 -0.8936,-0.13238 -63.3353,3.89629 -73.07812,4.71492 -2.89624,0.24335 -3.26021,0.015 -5.46827,-3.4312 -9.69963,-15.13841 -27.21194,-15.19373 -56.73999,-0.17921 -18.47557,9.39451 -19.27039,10.13551 -20.5625,19.17021 -5.05853,35.37034 4.20913,57.573 27.14535,65.03251 3.84674,1.25107 6.40335,1.75218 12.48,2.44615 1.95383,0.22313 10.09891,-0.11617 12.75429,-0.5313 z"
         id="path3" />
      <path
         style="fill:#010101"
         d="m 154.69714,923.03959 c -0.6359,-0.31768 -1.16952,-0.90148 -1.58064,-1.72932 l -0.62064,-1.24974 0.52513,-1.49312 c 6.54236,-18.60207 26.79343,-49.5473 43.07843,-65.82725 14.86929,-14.86467 26.68615,-21.98829 48.97487,-29.52377 17.67612,-5.97604 23.38442,-8.758 34.42286,-16.7761 21.1075,-15.33208 42.10221,-42.11769 57.00303,-72.72599 3.46035,-7.10802 3.20102,-6.75577 8.28366,-11.25164 16.83583,-14.89219 34.82294,-27.09757 52.69428,-35.75638 12.21834,-5.91989 17.64679,-7.85687 39.21837,-13.99391 24.39144,-6.93929 32.67842,-12.18194 39.42445,-24.9414 2.00974,-3.80123 1.66968,-4.47246 -2.47867,-4.89267 -11.28516,-1.14313 -21.69915,1.88199 -39.31084,11.41924 -39.39516,21.33366 -72.56532,32.05576 -116.27491,37.58532 -76.42916,9.66881 -76.84184,-43.4106 -0.95432,-122.74626 27.04578,-28.27468 57.56895,-48.88466 107.21781,-72.39606 2.79085,-1.32162 7.95004,-3.78276 11.46485,-5.4692 30.66504,-14.71336 77.33236,-30.2112 109.86581,-36.48553 5.82606,-1.1236 9.01105,1.7091 7.14796,6.35733 -3.13722,7.82704 -12.91388,25.81812 -18.52577,34.09121 -4.63759,6.83678 -17.13273,21.90186 -19.71147,23.76563 -0.27398,0.19801 -2.4538,2.14122 -4.84405,4.31823 -11.90576,10.84362 -24.06237,19.1922 -39.86591,27.37798 -16.01433,8.29497 -28.34426,12.79026 -61.02857,22.25001 -47.8861,13.85958 -59.29872,21.39667 -64.16391,42.37495 -1.12289,4.8418 -0.82493,4.9957 9.58105,4.94881 14.96802,-0.0675 23.88818,-1.93063 49.09715,-10.25503 60.18269,-19.87326 93.24314,-23.29551 115.52883,-11.95896 5.64877,2.87349 7.52272,4.55764 13.89842,12.49076 9.12006,11.34785 19.35012,34.08693 17.0789,37.96246 -0.80613,1.37557 -0.81381,1.38087 -6.93663,4.78992 -13.01663,7.24738 -22.09534,13.89261 -43.15809,31.58992 -34.38206,28.88842 -62.69408,49.67096 -116.98286,85.87165 -15.5891,10.39508 -22.87648,15.18416 -55.26857,36.3211 -38.53839,25.14762 -60.72032,39.80747 -77.62286,51.30032 -19.54578,13.29011 -48.78181,33.65626 -62.4,43.46854 -32.4387,23.37298 -30.68046,22.23636 -32.77715,21.18895 z M 919.9543,790.30539 c -62.64132,-2.34626 -114.46442,-45.65195 -127.13159,-106.23681 -13.93044,-66.62682 20.63159,-142.58263 84.01747,-184.6424 5.86705,-3.8931 6.08074,-3.91502 2.85031,-0.29241 -10.68888,11.98651 -19.45281,25.55895 -27.22924,42.16909 -9.47297,20.23391 -14.54357,34.08171 -20.40023,55.713 -1.52443,5.63042 -1.61782,5.10786 1.88122,10.527 12.36971,19.15761 11.65747,38.54665 -2.30212,62.66922 -3.88763,6.71795 -12.84228,16.54967 -21.26297,23.34562 -7.3987,5.97114 6.75887,1.18398 15.08681,-5.10137 4.48152,-3.38234 4.71178,-3.34109 5.46752,0.97938 2.37205,13.56072 10.02178,25.95042 20.72567,33.56781 4.56008,3.24516 4.11926,3.16602 13.18004,2.36613 10.98617,-0.96986 20.26014,0.32883 24.94568,3.49332 15.02444,10.14708 19.65441,23.8673 15.39932,45.6335 -1.08753,5.56308 0.54448,4.26847 4.38827,-3.48103 2.42972,-4.89859 2.30512,-4.82885 6.21812,-3.48014 10.41762,3.59068 25.25135,3.69137 48.06518,0.32626 6.41325,-0.94597 6.57982,-1.07747 7.13352,-5.63137 2.76434,-22.73519 42.01052,-50.2702 59.22072,-41.54912 7.9807,4.04417 6.2568,15.15113 -4.9425,31.84345 -3.5802,5.33615 -2.5234,5.38841 6.7345,0.33305 3.7065,-2.02396 14.9417,-8.36347 16.5639,-9.3463 2.0009,-1.21223 0.5704,0.29726 -3.1459,3.31947 -37.4381,30.4465 -79.95522,45.17919 -125.4637,43.47465 z m 199.5429,-25.4945 c -23.8665,-3.71199 -33.3749,-22.52274 -28.1,-55.59096 l 0.5163,-3.23722 2.6552,-4.16312 c 14.3765,-22.54187 23.6362,-47.48236 27.5174,-74.11672 0.9452,-6.48587 2.102,-22.95293 1.792,-25.50858 -0.073,-0.60343 -0.2546,-3.58367 -0.4032,-6.62277 -0.3893,-7.96039 -1.5202,-16.27085 -3.298,-24.23437 l -0.8266,-3.70286 4.6547,-23.04 c 8.1212,-40.19903 10.7089,-52.84246 10.8674,-53.09894 0.1871,-0.30269 40.3514,-0.34372 40.5382,-0.0414 0.071,0.11452 -0.2852,2.24366 -0.791,4.73143 -0.5058,2.48776 -6.4883,32.04778 -13.2943,65.68892 -6.8061,33.64115 -15.5234,76.71772 -19.3718,95.72572 -12.133,59.92652 -12.4918,62.11262 -10.7249,65.34599 1.4987,2.74259 5.5484,2.32951 7.7762,-0.79319 2.9377,-4.11763 3.9273,-8.2008 13.7166,-56.59852 19.916,-98.46274 31.8256,-157.39691 33.5619,-166.08 0.7693,-3.84686 1.5138,-7.272 1.6546,-7.61143 l 0.2561,-0.61714 h 20.1658 c 19.5438,0 20.1659,0.0159 20.1659,0.51493 0,0.44274 -6.7595,34.08494 -17.1462,85.3365 -1.5745,7.76914 -4.895,24.18514 -7.3788,36.48 -17.1511,84.89671 -18.7557,92.40972 -22.2813,104.32503 -9.3117,31.47025 -35.3367,51.09025 -62.2222,46.90871 z m -608.04197,-0.032 c -0.0672,-0.11412 0.85729,-5.0212 2.05444,-10.90462 1.19714,-5.88343 5.50625,-27.17486 9.57579,-47.31429 4.06955,-20.13943 7.46007,-36.80229 7.5345,-37.02857 0.2875,-0.8741 7.08447,-5.2604 14.7539,-9.52116 8.5746,-4.76364 10.65242,-6.73017 11.68676,-11.06078 l 0.54488,-2.2813 -0.71112,-3.1741 c -1.87373,-8.36341 -7.70617,-21.28964 -13.63546,-30.21981 l -0.99979,-1.50578 0.97577,-4.78711 c 0.53667,-2.63291 3.37009,-16.63625 6.29648,-31.11854 12.05333,-59.6501 16.86445,-83.4158 17.00494,-84 l 0.14842,-0.61714 h 20.29192 c 19.79778,0 20.29192,0.0128 20.29192,0.52444 0,0.48092 -3.94221,20.08677 -18.09452,89.98985 -2.85567,14.10514 -9.34033,46.13486 -14.41035,71.17714 -5.07002,25.04229 -12.04765,59.54057 -15.50585,76.66286 -3.4582,17.12229 -6.50593,32.05714 -6.77274,33.18857 l -0.48511,2.05714 -20.2113,0.0703 c -11.11621,0.0387 -20.26628,-0.023 -20.33348,-0.13714 z m 57.9202,0.0708 c -0.0919,-0.0919 0.12228,-1.54982 0.47595,-3.23983 0.65119,-3.11173 9.33752,-46.01943 30.99532,-153.10703 15.74425,-77.8479 23.13548,-114.3613 23.47206,-115.95428 l 0.27528,-1.30286 h 21.00217 c 44.05721,0 53.55675,2.4505 60.07571,15.49714 5.43611,10.8795 5.42221,23.15646 -0.0603,53.21143 -1.36044,7.45794 -5.21361,27.03654 -9.33867,47.45143 -18.86352,93.3552 -19.19483,94.94271 -23.05025,110.44902 -7.80642,31.39705 -17.94286,43.41143 -39.21128,46.47584 -3.3249,0.47906 -64.18726,0.96789 -64.63601,0.51914 z m 55.95914,-47.0785 c 7.08107,-2.43624 9.43436,-8.29589 15.66053,-38.99434 0.89364,-4.40614 4.35389,-21.46487 7.68945,-37.9083 20.76711,-102.37628 19.9212,-97.07442 16.11568,-101.00638 -1.60476,-1.65807 -7.72737,-3.04647 -8.61726,-1.9541 -0.28547,0.35043 -12.28062,59.23213 -33.86982,166.26001 -3.265,16.18613 -3.3517,15.79579 3.02142,13.60311 z m 55.1683,46.7144 c 0,-0.27348 0.54851,-3.20491 1.21891,-6.51428 4.28544,-21.15451 11.34345,-56.03506 15.7866,-78.01705 2.85102,-14.10514 7.15771,-35.39657 9.57041,-47.31428 2.4127,-11.91772 9.63766,-47.65029 16.05548,-79.40572 6.41782,-31.75543 11.88666,-58.66286 12.15297,-59.79428 l 0.4842,-2.05715 34.08,-0.0696 c 29.41687,-0.0601 34.08,-0.0159 34.08,0.32297 0,0.53734 -10.71266,53.44702 -10.87446,53.70883 -0.0711,0.1151 -6.21666,0.20927 -13.65672,0.20927 -10.49741,0 -13.58685,0.0768 -13.79291,0.34286 -0.14605,0.18857 -0.70854,2.56457 -1.24997,5.28 -0.54142,2.71543 -2.8439,14.13077 -5.1166,25.36743 -2.27271,11.23666 -4.1322,20.64809 -4.1322,20.91429 0,0.45545 0.74325,0.48399 12.60096,0.48399 15.05409,0 13.59556,-2.95771 9.2151,18.68708 -2.02631,10.01239 -4.30644,21.29007 -5.06696,25.0615 -0.76052,3.77143 -1.44825,7.13485 -1.5283,7.47428 l -0.14554,0.61715 H 757.4289 744.67396 l -0.26537,0.61714 c -0.46719,1.0865 -12.13111,59.43399 -11.96674,59.86233 0.13791,0.35938 2.04941,0.41195 14.97812,0.41195 14.54036,0 14.82004,0.0102 14.82004,0.53803 0,0.70127 -10.63109,53.16748 -10.8425,53.50955 -0.34939,0.56533 -70.89464,0.33025 -70.89464,-0.23625 z m 526.90283,0.13349 c 0,-0.34606 4.3237,-21.85169 14.4024,-71.63624 6.8304,-33.73963 11.7565,-58.09618 26.9882,-133.44001 1.4792,-7.31657 2.6325,-13.45714 2.5629,-13.64571 -0.099,-0.26708 -2.7572,-0.34286 -12.0285,-0.34286 -10.0892,0 -11.9021,-0.0592 -11.9021,-0.38881 0,-0.55985 10.6947,-53.41964 10.8631,-53.69211 0.2685,-0.43447 89.5255,-0.28186 89.5255,0.15307 0,0.43945 -10.6329,53.06839 -10.8261,53.585 -0.1,0.26715 -2.796,0.34285 -12.2112,0.34285 h -12.0831 l -0.2579,0.61715 c -0.1419,0.33942 -0.7012,2.83885 -1.2428,5.55428 -1.3411,6.72322 -5.7426,28.52851 -11.3777,56.36572 -2.5804,12.74743 -6.9015,34.10057 -9.6024,47.45143 -2.7009,13.35085 -6.8236,33.71657 -9.1617,45.25714 -2.3381,11.54057 -6.1729,30.48686 -8.5218,42.10286 -2.3489,11.616 -4.3379,21.336 -4.4201,21.6 -0.2001,0.64308 -40.7067,0.75874 -40.7067,0.11624 z m -133.7143,-100.4371 c -18.9744,-3.58543 -22.7523,-27.14021 -7.7392,-48.25321 13.9044,-19.55388 31.604,-23.13059 39.3367,-7.94914 10.8583,21.3178 -3.7087,53.33262 -25.5709,56.19851 -3.6626,0.48012 -3.5066,0.48002 -6.0266,0.004 z m -122.46853,-6.025 c -28.88932,-4.1795 -35.20477,-40.56429 -10.69714,-61.62877 20.7463,-17.8316 50.63393,-11.79134 56.50726,11.42005 6.62331,26.17521 -18.86186,54.10739 -45.81012,50.20872 z m -70.4584,-103.56767 c -16.73793,-2.99007 -11.59764,-33.97962 8.41805,-50.75026 20.41185,-17.10259 49.47475,-16.86494 49.4196,0.40411 -0.0606,18.98415 -39.79254,53.56974 -57.83765,50.34615 z m 167.51043,-17.94248 c -27.0062,-4.41978 -43.9947,-38.45614 -27.5206,-55.13738 5.863,-5.93676 6.526,-6.1396 12.3935,-3.792 15.0623,6.02639 29.4479,15.04885 40.5377,25.42461 l 3.1004,2.90083 -0.1272,2.40713 c -0.9876,18.69171 -13.0774,30.70184 -28.3838,28.19681 z M 519.22286,444.73354 c -6.07665,-0.69397 -8.63326,-1.19508 -12.48,-2.44615 -22.93622,-7.45951 -32.20388,-29.66217 -27.14535,-65.03251 1.29211,-9.0347 2.08693,-9.7757 20.5625,-19.17021 29.52805,-15.01452 47.04036,-14.9592 56.73999,0.17921 2.20806,3.44617 2.57203,3.67455 5.46827,3.4312 9.74282,-0.81863 72.18452,-4.8473 73.07812,-4.71492 3.83331,0.56787 4.13398,4.68755 0.48505,6.64597 -12.20038,6.54807 -50.02635,21.69648 -68.98286,27.626 -13.58305,4.24873 -13.7729,4.31898 -13.20565,4.88623 0.55406,0.55406 7.44864,-0.28026 13.1541,-1.5918 7.26466,-1.66996 7.91492,3.4752 2.23957,17.7206 -9.11462,22.87814 -27.74739,34.99782 -49.91374,32.46638 z"
         id="path2" />
    </g>
  </g>
</svg>
